HIERARCHY
ROOT root
{
	OFFSET	0	13.1	24.9
	CHANNELS 6  Xposition Yposition Zposition Xrotation Yrotation Zrotation
	JOINT spine_1
	{
		OFFSET	0	9.99999	0
		CHANNELS 3  Xrotation Yrotation Zrotation
		JOINT spine_2
		{
			OFFSET	0	112	-10
			CHANNELS 3  Xrotation Yrotation Zrotation
			JOINT spine_3
			{
				OFFSET	0	206.5	19.3
				CHANNELS 3  Xrotation Yrotation Zrotation
				JOINT spine_4
				{
					OFFSET	0	110.4	14.6
					CHANNELS 3  Xrotation Yrotation Zrotation
					JOINT neck_1
					{
						OFFSET	0	71.8	-50.3
						CHANNELS 3  Xrotation Yrotation Zrotation
						JOINT neck_2
						{
							OFFSET	0	86.2	-25.8
							CHANNELS 3  Xrotation Yrotation Zrotation
							JOINT head_ee
							{
								OFFSET	0	179.8	-8.7
								CHANNELS 3  Xrotation Yrotation Zrotation
								End Site
								{
									OFFSET	1	0	0
								}
							}
						}
					}
					JOINT left_clavicle
					{
						OFFSET	-43.2	22.4	-70.8
						CHANNELS 3  Xrotation Yrotation Zrotation
						JOINT left_shoulder
						{
							OFFSET	-93.9	-5.79999	48.7
							CHANNELS 3  Xrotation Yrotation Zrotation
							JOINT left_elbow
							{
								OFFSET	-291.4	-30.8	15.2
								CHANNELS 3  Xrotation Yrotation Zrotation
								JOINT left_lowarm_twist
								{
									OFFSET	-110.7	-3.89999	13.6
									CHANNELS 3  Xrotation Yrotation Zrotation
									JOINT left_hand
									{
										OFFSET	-110.7	-3.89999	13.6
										CHANNELS 3  Xrotation Yrotation Zrotation
										JOINT left_ee
										{
											OFFSET	-80.8	-5.10001	12.1
											CHANNELS 3  Xrotation Yrotation Zrotation
											End Site
											{
												OFFSET	1	0	0
											}
										}
									}
								}
							}
						}
					}
					JOINT right_clavicle
					{
						OFFSET	43.2	22.4	-70.8
						CHANNELS 3  Xrotation Yrotation Zrotation
						JOINT right_shoulder
						{
							OFFSET	93.9	-5.79999	48.7
							CHANNELS 3  Xrotation Yrotation Zrotation
							JOINT right_elbow
							{
								OFFSET	291.4	-30.8	15.2
								CHANNELS 3  Xrotation Yrotation Zrotation
								JOINT right_lowarm_twist
								{
									OFFSET	110.7	-3.89999	13.6
									CHANNELS 3  Xrotation Yrotation Zrotation
									JOINT right_hand
									{
										OFFSET	110.7	-3.89999	13.6
										CHANNELS 3  Xrotation Yrotation Zrotation
										JOINT right_ee
										{
											OFFSET	80.8	-5.10001	12.1
											CHANNELS 3  Xrotation Yrotation Zrotation
											End Site
											{
												OFFSET	1	0	0
											}
										}
									}
								}
							}
						}
					}
				}
			}
		}
	}
	JOINT left_hip
	{
		OFFSET	-82.8	-127.5	0.300001
		CHANNELS 3  Xrotation Yrotation Zrotation
		JOINT left_knee
		{
			OFFSET	-28.2	-396.7	2.2
			CHANNELS 3  Xrotation Yrotation Zrotation
			JOINT left_ankle
			{
				OFFSET	-11.7	-411.3	35.4
				CHANNELS 3  Xrotation Yrotation Zrotation
				JOINT left_toes
				{
					OFFSET	0	-60	-88.6
					CHANNELS 3  Xrotation Yrotation Zrotation
					JOINT left_foot_ee
					{
						OFFSET	-22.5	-16.5	-42.2
						CHANNELS 3  Xrotation Yrotation Zrotation
						End Site
						{
							OFFSET	1	0	0
						}
					}
				}
			}
		}
	}
	JOINT right_hip
	{
		OFFSET	82.8	-127.5	0.300001
		CHANNELS 3  Xrotation Yrotation Zrotation
		JOINT right_knee
		{
			OFFSET	28.2	-396.7	2.2
			CHANNELS 3  Xrotation Yrotation Zrotation
			JOINT right_ankle
			{
				OFFSET	11.7	-411.3	35.4
				CHANNELS 3  Xrotation Yrotation Zrotation
				JOINT right_toes
				{
					OFFSET	0	-60	-88.6
					CHANNELS 3  Xrotation Yrotation Zrotation
					JOINT right_foot_ee
					{
						OFFSET	22.5	-16.5	-42.2
						CHANNELS 3  Xrotation Yrotation Zrotation
						End Site
						{
							OFFSET	1	0	0
						}
					}
				}
			}
		}
	}
}
MOTION
Frames: 9
Frame Time: 0.02
2512.8655777 724.146 -1529.58040583 173.392681928 74.6081080806 -173.62768164 1.79597 0.216898 0.0587087 1.79594 0.212722 0.0723915 1.79622 0.196281 0.109385 1.79626 0.211093 0.0770127 -18.8401 3.4116 -3.68263 -18.8987 8.51395 -2.0729 -0.0 0.0 -0.0 3.81084 20.47 7.95061 -20.3471 2.83938 64.5227 0.153372 -4.34487 0.00581809 2.39343 0.0781592 -0.295687 6.24874 15.8023 53.2871 -0.0 0.0 -0.0 8.32967 -11.9545 -15.628 -16.2633 18.0827 -63.2096 1.79682 41.6682 -0.683821 -59.2292 5.18705 -5.07654 2.30433 6.61386 -12.8511 0.0 0.0 0.0 6.38743 -1.11698 -7.38852 -40.2598 -0.483375 6.0346 42.188 25.1837 -5.37939 -35.1949 0.0 0.0 -0.0 0.0 -0.0 5.28818 -31.6057 -0.600221 -2.4242 -0.0921953 -0.360583 22.2096 28.8162 3.69318 -17.1602 0.0 0.0 0.0 0.0 0.0 
2504.57484465 721.445 -1514.21791784 173.498902265 72.0283140802 -173.813574872 1.57832 0.315817 0.0818448 1.57827 0.309969 0.101775 1.57882 0.286085 0.156826 1.57892 0.307263 0.109676 -19.128 3.61366 -3.1863 -19.2011 8.62705 -1.50854 -0.0 0.0 -0.0 3.66242 21.3321 7.73899 -21.1515 2.81837 64.4401 0.203314 -5.75134 0.0102129 0.940841 0.0321982 -0.115847 6.34022 17.8518 54.7883 -0.0 0.0 -0.0 8.41799 -11.6922 -15.8066 -15.633 17.0734 -63.0359 1.8503 42.5038 -0.719667 -59.0873 5.16947 -5.07186 2.12252 7.02192 -11.4214 0.0 0.0 0.0 7.07276 -3.202 -5.68037 -31.1526 -0.00180466 4.72237 42.2791 24.2622 -5.35651 -35.1322 0.0 0.0 -0.0 0.0 -0.0 4.63182 -29.8763 -0.380992 -2.70404 -0.101852 -0.402445 26.7204 31.1059 4.44499 -17.1238 0.0 0.0 0.0 0.0 0.0 
2492.77094768 720.312 -1495.08299048 171.248699649 69.3199117311 -171.8046566 1.39607 0.396944 0.0648559 1.39599 0.392013 0.0899834 1.39661 0.36839 0.161432 1.39679 0.389262 0.101225 -18.8045 3.41392 -3.73677 -18.8625 8.54904 -2.1249 -0.0 0.0 -0.0 3.49475 21.8468 7.50213 -21.5979 3.69331 64.5872 0.209273 -5.91873 0.0108187 0.497661 0.0172688 -0.0612126 6.2887 18.1897 54.2658 -0.0 0.0 -0.0 8.36258 -12.0652 -15.6772 -16.0217 16.9056 -62.4301 1.95737 44.1116 -0.793111 -59.4571 5.21531 -5.08396 1.97677 7.00791 -10.4257 0.0 0.0 0.0 7.4266 -3.95229 -4.78141 -27.9051 0.118586 4.2386 40.1815 24.413 -5.16645 -35.3347 0.0 0.0 -0.0 0.0 -0.0 3.75561 -31.5233 -0.111465 -3.41451 -0.12545 -0.508927 25.818 30.3584 4.27883 -17.1299 0.0 0.0 0.0 0.0 0.0 
2491.10876313 721.218 -1485.61789712 172.125726301 68.1066526268 -172.687240862 1.34843 0.43427 0.0405488 1.34833 0.430809 0.0681009 1.34884 0.410461 0.147502 1.34906 0.428605 0.0808252 -18.6595 3.84441 -3.30162 -18.7386 9.15437 -1.55693 -0.0 0.0 -0.0 3.72466 22.2172 7.8329 -21.7541 3.77089 64.3571 0.229729 -6.49255 0.0130299 -0.69456 -0.0249897 0.0851795 6.32858 19.2037 54.9055 -0.0 0.0 -0.0 8.51615 -8.95366 -16.1954 -16.571 16.4126 -62.263 1.78241 41.4392 -0.674261 -59.5054 5.2213 -5.08551 1.88705 7.0514 -9.79213 0.0 0.0 0.0 7.82581 -4.73802 -3.87781 -24.1328 0.223732 3.66931 39.7502 24.9531 -5.14234 -35.0971 0.0 0.0 -0.0 0.0 -0.0 3.54463 -31.2315 0.356418 -4.04744 -0.145357 -0.604022 28.6024 31.4953 4.72031 -16.8241 0.0 0.0 0.0 0.0 0.0 
2490.89497594 721.218 -1476.57197413 172.654551109 66.4492311187 -173.26050071 1.34843 0.43427 0.0405488 1.34833 0.430809 0.0681009 1.34884 0.410461 0.147502 1.34906 0.428605 0.0808252 -18.6595 3.84441 -3.30162 -18.7386 9.15437 -1.55693 -0.0 0.0 -0.0 3.72466 22.2172 7.8329 -21.7541 3.77089 64.3571 0.229729 -6.49255 0.0130299 -0.69456 -0.0249897 0.0851795 6.32858 19.2037 54.9055 -0.0 0.0 -0.0 8.51615 -8.95366 -16.1954 -16.571 16.4126 -62.263 1.78241 41.4392 -0.674261 -59.5054 5.2213 -5.08551 1.88705 7.0514 -9.79213 0.0 0.0 0.0 7.82581 -4.73802 -3.87781 -24.1328 0.223732 3.66931 39.7502 24.9531 -5.14234 -35.0971 0.0 0.0 -0.0 0.0 -0.0 3.54463 -31.2315 0.356418 -4.04744 -0.145357 -0.604022 28.6024 31.4953 4.72031 -16.8241 0.0 0.0 0.0 0.0 0.0 
2490.88273489 721.218 -1473.25974618 172.82942993 65.842058659 -173.451710909 1.34843 0.43427 0.0405488 1.34833 0.430809 0.0681009 1.34884 0.410461 0.147502 1.34906 0.428605 0.0808252 -18.6595 3.84441 -3.30162 -18.7386 9.15437 -1.55693 -0.0 0.0 -0.0 3.72466 22.2172 7.8329 -21.7541 3.77089 64.3571 0.229729 -6.49255 0.0130299 -0.69456 -0.0249897 0.0851795 6.32858 19.2037 54.9055 -0.0 0.0 -0.0 8.51615 -8.95366 -16.1954 -16.571 16.4126 -62.263 1.78241 41.4392 -0.674261 -59.5054 5.2213 -5.08551 1.88705 7.0514 -9.79213 0.0 0.0 0.0 7.82581 -4.73802 -3.87781 -24.1328 0.223732 3.66931 39.7502 24.9531 -5.14234 -35.0971 0.0 0.0 -0.0 0.0 -0.0 3.54463 -31.2315 0.356418 -4.04744 -0.145357 -0.604022 28.6024 31.4953 4.72031 -16.8241 0.0 0.0 0.0 0.0 0.0 
2490.8883844 721.218 -1471.8299828 172.902140423 65.5798948356 -173.531482416 1.34843 0.43427 0.0405488 1.34833 0.430809 0.0681009 1.34884 0.410461 0.147502 1.34906 0.428605 0.0808252 -18.6595 3.84441 -3.30162 -18.7386 9.15437 -1.55693 -0.0 0.0 -0.0 3.72466 22.2172 7.8329 -21.7541 3.77089 64.3571 0.229729 -6.49255 0.0130299 -0.69456 -0.0249897 0.0851795 6.32858 19.2037 54.9055 -0.0 0.0 -0.0 8.51615 -8.95366 -16.1954 -16.571 16.4126 -62.263 1.78241 41.4392 -0.674261 -59.5054 5.2213 -5.08551 1.88705 7.0514 -9.79213 0.0 0.0 0.0 7.82581 -4.73802 -3.87781 -24.1328 0.223732 3.66931 39.7502 24.9531 -5.14234 -35.0971 0.0 0.0 -0.0 0.0 -0.0 3.54463 -31.2315 0.356418 -4.04744 -0.145357 -0.604022 28.6024 31.4953 4.72031 -16.8241 0.0 0.0 0.0 0.0 0.0 
2490.8893 721.218 -1471.68878995 172.909233285 65.5540029122 -173.539272959 1.34843 0.43427 0.0405488 1.34833 0.430809 0.0681009 1.34884 0.410461 0.147502 1.34906 0.428605 0.0808252 -18.6595 3.84441 -3.30162 -18.7386 9.15437 -1.55693 -0.0 0.0 -0.0 3.72466 22.2172 7.8329 -21.7541 3.77089 64.3571 0.229729 -6.49255 0.0130299 -0.69456 -0.0249897 0.0851795 6.32858 19.2037 54.9055 -0.0 0.0 -0.0 8.51615 -8.95366 -16.1954 -16.571 16.4126 -62.263 1.78241 41.4392 -0.674261 -59.5054 5.2213 -5.08551 1.88705 7.0514 -9.79213 0.0 0.0 0.0 7.82581 -4.73802 -3.87781 -24.1328 0.223732 3.66931 39.7502 24.9531 -5.14234 -35.0971 0.0 0.0 -0.0 0.0 -0.0 3.54463 -31.2315 0.356418 -4.04744 -0.145357 -0.604022 28.6024 31.4953 4.72031 -16.8241 0.0 0.0 0.0 0.0 0.0 
2490.8858914 721.218 -1472.28079084 172.879389482 65.6625607959 -173.506504353 1.34843 0.43427 0.0405488 1.34833 0.430809 0.0681009 1.34884 0.410461 0.147502 1.34906 0.428605 0.0808252 -18.6595 3.84441 -3.30162 -18.7386 9.15437 -1.55693 -0.0 0.0 -0.0 3.72466 22.2172 7.8329 -21.7541 3.77089 64.3571 0.229729 -6.49255 0.0130299 -0.69456 -0.0249897 0.0851795 6.32858 19.2037 54.9055 -0.0 0.0 -0.0 8.51615 -8.95366 -16.1954 -16.571 16.4126 -62.263 1.78241 41.4392 -0.674261 -59.5054 5.2213 -5.08551 1.88705 7.0514 -9.79213 0.0 0.0 0.0 7.82581 -4.73802 -3.87781 -24.1328 0.223732 3.66931 39.7502 24.9531 -5.14234 -35.0971 0.0 0.0 -0.0 0.0 -0.0 3.54463 -31.2315 0.356418 -4.04744 -0.145357 -0.604022 28.6024 31.4953 4.72031 -16.8241 0.0 0.0 0.0 0.0 0.0 
